<svg width="27" height="50" viewBox="0 0 27 50" fill="none" xmlns="http://www.w3.org/2000/svg">
<path d="M26.3963 28.4917C26.3963 26.9828 25.9113 25.5277 25.049 24.2343C24.2945 23.1565 23.7556 22.1865 23.3245 21.2164C23.1089 20.7853 22.8934 20.3542 22.6239 19.923C23.8095 18.8991 24.564 17.444 24.8873 15.6656C25.1568 14.1567 25.4801 12.3783 25.8035 10.6538C27.2047 3.54013 27.5819 1.65394 25.8035 0.899466C25.5879 0.791684 25.3724 0.737793 25.1029 0.737793C23.4862 0.737793 21.0611 3.43235 20.2527 4.29461C19.0671 5.64188 16.9115 8.28255 15.6181 11.2466C15.0253 12.5938 14.7019 13.9411 14.5941 15.1806C14.2169 15.1267 13.8397 15.1267 13.5163 15.1267C13.1391 15.1267 12.7618 15.1267 12.3846 15.1806C12.2768 13.9411 11.9535 12.5938 11.3607 11.2466C10.1212 8.28255 7.91164 5.64188 6.72604 4.29461C5.97156 3.43235 3.54646 0.737793 1.92973 0.737793C1.66027 0.737793 1.44471 0.791684 1.17525 0.899466C-0.549265 1.65394 -0.225918 3.54013 1.17525 10.6538C1.4986 12.3783 1.87584 14.1028 2.0914 15.6656C2.41475 17.4979 3.16922 18.953 4.35483 19.9769C4.08537 20.3542 3.86981 20.7853 3.70813 21.2164C3.277 22.1865 2.73809 23.1565 1.98362 24.2343C1.12136 25.5277 0.636341 26.9828 0.636341 28.4917C0.636341 31.0246 1.92973 33.3419 4.19315 35.0125C3.16922 36.8987 2.57642 38.8927 2.57642 40.725C2.57642 41.8567 2.79199 42.8806 3.22312 43.7968C2.7381 44.7129 2.52253 45.7908 2.52253 46.8147C2.52253 47.1919 2.57642 47.5153 2.63031 47.8925C2.73809 48.7009 3.43868 49.2937 4.24705 49.2937H22.6778C23.4862 49.2937 24.1868 48.7009 24.2945 47.8925C24.3484 47.5153 24.4023 47.1919 24.4023 46.8147C24.4023 45.7369 24.1329 44.7129 23.7017 43.7968C24.1329 42.8806 24.3484 41.8567 24.3484 40.725C24.3484 38.8927 23.7556 36.8987 22.7317 35.0125C25.1029 33.3419 26.3963 31.0246 26.3963 28.4917ZM21.8156 43.3118C21.7617 43.3657 21.7078 43.4734 21.6539 43.5273C21.6 43.5812 21.5461 43.689 21.4922 43.7429C21.115 44.174 20.5761 44.6052 19.9833 44.9285C19.1749 45.3596 18.2048 45.6291 17.0192 45.8447C17.2887 45.3057 17.4504 44.6591 17.4504 44.0124C17.4504 43.4196 17.2887 42.8268 17.0731 42.2878C17.0192 42.234 17.0192 42.1262 16.9653 42.0723C16.9115 42.0184 16.8576 41.9106 16.8576 41.8567C16.157 40.7789 14.9175 40.0783 13.5163 40.0783C12.1151 40.0783 10.8757 40.7789 10.1751 41.8567C10.1212 41.9106 10.0673 42.0184 10.0673 42.0723C10.0134 42.1262 10.0134 42.234 9.9595 42.2878C9.69005 42.8268 9.58227 43.4196 9.58227 44.0124C9.58227 44.6591 9.74394 45.3057 10.0134 45.8447C7.91164 45.5213 6.45658 44.8207 5.54043 43.7968C5.48654 43.7429 5.43265 43.689 5.37876 43.5812C5.32487 43.5273 5.27098 43.4196 5.21708 43.3657C4.73206 42.6112 4.46261 41.7489 4.46261 40.725C4.46261 38.8388 5.27098 36.6293 6.56436 34.797C6.61825 34.7431 6.67215 34.6892 6.72604 34.5814C6.77993 34.5275 6.83382 34.4197 6.88771 34.3659C6.9416 34.2581 6.99549 34.2042 7.10327 34.0964C8.88168 31.9408 11.1451 30.7013 13.3546 30.7013H13.6241C15.8875 30.7013 18.0971 31.8869 19.8755 34.0964C19.9294 34.2042 19.9833 34.2581 20.091 34.3659C20.1449 34.4197 20.1988 34.4736 20.2527 34.5814C20.3066 34.6353 20.3605 34.6892 20.4144 34.797C21.7617 36.6293 22.5161 38.8388 22.5161 40.725C22.57 41.695 22.3006 42.6112 21.8156 43.3118ZM13.7858 46.9225H13.3008C12.8157 46.8686 12.3846 46.7069 11.9535 46.4914C11.8457 46.4375 11.684 46.3297 11.5762 46.2219L11.3068 45.9524C10.8218 45.4135 10.5523 44.7129 10.5523 43.9585C10.5523 43.4734 10.6601 42.9884 10.8757 42.6112C10.9295 42.5573 10.9295 42.4495 10.9834 42.3956C11.0373 42.3417 11.0912 42.234 11.1451 42.1801C11.684 41.4256 12.5463 40.9945 13.5163 40.9945C14.4864 40.9945 15.3486 41.4795 15.8875 42.1801C15.9414 42.234 15.9953 42.2878 16.0492 42.3956C16.1031 42.4495 16.157 42.5573 16.157 42.6112C16.3725 43.0423 16.4803 43.4734 16.4803 43.9585C16.4803 44.7129 16.2109 45.4135 15.7259 45.9524L15.4564 46.2219C15.3486 46.3297 15.2408 46.3836 15.0792 46.4914C14.7019 46.7069 14.2708 46.8686 13.7858 46.9225ZM5.27098 44.1201C5.70211 44.6052 6.24102 44.9824 6.83382 45.3057C7.80386 45.7908 8.93557 46.1141 10.3906 46.3297C10.714 46.7069 11.0912 47.0842 11.5223 47.3536H4.5165C4.5165 47.138 4.46261 46.9764 4.46261 46.7608C4.46261 45.7908 4.78596 44.8746 5.27098 44.1201ZM16.6959 46.3297C18.0971 46.168 19.2827 45.7908 20.2527 45.3057C20.8994 44.9824 21.4383 44.5513 21.8156 44.1201C22.3006 44.8746 22.57 45.7908 22.57 46.7608C22.57 46.9764 22.57 47.138 22.5161 47.3536H15.6181C16.0492 47.0842 16.4264 46.7608 16.6959 46.3297ZM20.5761 34.0964C20.4683 33.9886 20.4144 33.8808 20.3066 33.773C18.4204 31.4557 16.0492 30.2162 13.678 30.2162H13.4085C10.9834 30.2162 8.66612 31.4557 6.77993 33.773C6.67215 33.8808 6.61825 33.9886 6.51047 34.0964C4.13926 32.9108 2.57642 30.809 2.57642 28.4378C2.57642 27.3061 2.95366 26.2283 3.60035 25.2583C4.40872 24.0726 5.00152 22.9948 5.48654 21.917C5.86378 21.1086 6.3488 20.3542 6.9416 19.7614C6.99549 19.7075 7.04938 19.6536 7.10327 19.5458C7.15716 19.4919 7.26495 19.438 7.31884 19.3302C8.1811 18.5758 9.15114 17.9291 10.2829 17.5518C10.3906 17.4979 10.4984 17.4979 10.5523 17.444C10.6601 17.3901 10.714 17.3901 10.8218 17.3363C11.684 17.0668 12.6002 16.959 13.5163 16.959C14.4325 16.959 15.3486 17.0668 16.157 17.3363C16.2648 17.3363 16.3187 17.3901 16.4264 17.444C16.5342 17.4979 16.642 17.4979 16.6959 17.5518C17.8276 17.9291 18.8515 18.5758 19.7138 19.3302C19.7677 19.3841 19.8755 19.438 19.9294 19.5458C19.9833 19.5997 20.0371 19.6536 20.091 19.7614C20.6838 20.4081 21.2227 21.1625 21.5461 21.9709C22.0311 23.0487 22.6239 24.1265 23.4323 25.3121C24.079 26.2822 24.4562 27.36 24.4562 28.4917C24.5101 30.8629 22.9473 32.9108 20.5761 34.0964ZM10.4445 17.0129C9.04335 17.444 7.80386 18.1985 6.83382 19.1686C6.67214 19.1147 6.51047 19.0069 6.3488 18.953C5.1093 18.2524 4.30094 17.0129 4.03148 15.2884C3.76203 13.7256 3.43868 11.9471 3.11533 10.2226C2.52253 7.04305 1.71416 3.16289 2.03751 2.57009C2.89977 2.67787 7.74997 7.3664 9.74394 11.9471C10.5523 14.1028 10.6601 15.8273 10.4445 17.0129ZM17.3965 12.001C19.3366 7.42029 24.2407 2.73176 25.1029 2.62398C25.3724 3.21678 24.6179 7.09695 24.0251 10.2765C23.7017 12.001 23.3245 13.7794 23.1089 15.3423C22.8395 17.0668 22.0311 18.3063 20.7916 19.0069C20.6299 19.0608 20.5222 19.1686 20.3605 19.2224C19.3366 18.2524 18.0971 17.4979 16.6959 17.0668C16.3725 15.7734 16.4803 14.1028 17.3965 12.001Z" fill="url(#paint0_linear_1_14)"/>
<defs>
<linearGradient id="paint0_linear_1_14" x1="-1.51065" y1="7.55195" x2="2445.52" y2="1148.62" gradientUnits="userSpaceOnUse">
<stop stop-color="#000009"/>
<stop offset="1" stop-color="#7469B6"/>
</linearGradient>
</defs>
</svg>
